# xmcd
#
# Track frame offsets:
#	150
#	17068
#	35691
#	52825
#	70354
#	88538
#	108418
#	125859
#	132113
#	153093
#	176294
#	195350
#	218250
#	233948
#	256524
#	275315
#
# Disc length: 3949 seconds
#
# Revision: 1
# Processed by: cddbd v1.5.1PL0 Copyright (c) Steve Scherf et al.
# Submitted via: EasyCDDAExtractor 6.5.0.1
#
DISCID=c90f6b10
DTITLE=ELO - Out of the blue
DYEAR=1977
DGENRE=Blues
TTITLE0=Turn to the stone
TTITLE1=it's over
TTITLE2=Sweet talkin' woman
TTITLE3=Across the border
TTITLE4=Night in the city
TTITLE5=Starlight
TTITLE6=Jungle
TTITLE7=Believe me now
TTITLE8=Steppin' out
TTITLE9=Big weels
TTITLE10=Summer and lighting
TTITLE11=Mr blue sky
TTITLE12=Sweet is the night
TTITLE13=The whale
TTITLE14=Birmingham blues
TTITLE15=Wild West hero
EXTD=
EXTT0=
EXTT1=
EXTT2=
EXTT3=
EXTT4=
EXTT5=
EXTT6=
EXTT7=
EXTT8=
EXTT9=
EXTT10=
EXTT11=
EXTT12=
EXTT13=
EXTT14=
EXTT15=
PLAYORDER=
